Coordinates
version=1
nRows=5
nColumns=63
inDegrees=yes

Units are S.I. units (second, meters, Newtons, ...)
If the header above contains a line with 'inDegrees', this indicates whether rotational values are in degrees (yes) or radians (no).

endheader
time	pelvis_tilt	pelvis_list	pelvis_rotation	pelvis_tx	pelvis_ty	pelvis_tz	hip_flexion_r	hip_adduction_r	hip_rotation_r	knee_angle_r	knee_angle_r_beta	ankle_angle_r	subtalar_angle_r	mtp_angle_r	hip_flexion_l	hip_adduction_l	hip_rotation_l	knee_angle_l	knee_angle_l_beta	ankle_angle_l	subtalar_angle_l	mtp_angle_l	L5_S1_Flex_Ext	L5_S1_Lat_Bending	L5_S1_axial_rotation	L4_L5_Flex_Ext	L4_L5_Lat_Bending	L4_L5_axial_rotation	L3_L4_Flex_Ext	L3_L4_Lat_Bending	L3_L4_axial_rotation	L2_L3_Flex_Ext	L2_L3_Lat_Bending	L2_L3_axial_rotation	L1_L2_Flex_Ext	L1_L2_Lat_Bending	L1_L2_axial_rotation	L1_T12_Flex_Ext	L1_T12_Lat_Bending	L1_T12_axial_rotation	Abs_r3	Abs_r2	Abs_r1	Abs_t1	Abs_t2	neck_flexion	neck_bending	neck_rotation	arm_flex_r	arm_add_r	arm_rot_r	elbow_flex_r	pro_sup_r	wrist_flex_r	wrist_dev_r	arm_flex_l	arm_add_l	arm_rot_l	elbow_flex_l	pro_sup_l	wrist_flex_l	wrist_dev_l
      0.43333333	     -4.49640791	      0.84278215	     -1.07860749	      0.09185671	      0.97450223	      0.35737707	      5.17323740	     -6.62710059	    -28.73004432	      3.50397538	      0.06115591	      1.62763411	     13.70741354	      0.00000000	      4.42193401	     -3.86592514	    -12.55461850	      2.25773893	      0.03940498	      2.71055116	      5.36219611	      0.00000000	      0.01243484	     -0.22066767	      0.12183735	      0.02309273	     -0.29348800	      0.12945219	      0.02042919	     -0.53653138	      0.12945219	      0.01421177	     -0.53653138	      0.10660768	      0.01154699	     -0.44998552	      0.09899285	      0.00710527	     -0.34181422	      0.09137801	      0.08882079	     -2.49623683	      0.67762281	      0.00000000	      0.00000000	      0.00000000	      0.00000000	      0.00000000	      1.68384207	    -31.99533073	    -35.36062688	     24.82717743	     62.39008318	      0.00000000	      4.99556522	     -8.70967554	    -30.59902740	    -29.65843321	     29.89730123	     63.84803345	      0.00000000	      4.99556522
      0.46666667	     -4.43027582	      0.66285902	     -1.11240638	      0.09215858	      0.97430219	      0.35687530	      5.01280061	     -6.45975969	    -28.60193108	      3.44905643	      0.06019739	      1.70420873	     13.81748363	      0.00000000	      4.30510148	     -3.99980201	    -13.26282464	      2.32646654	      0.04060450	      3.19177469	      6.06322273	      0.00000000	      0.01363784	     -0.20238231	      0.16558524	      0.02532684	     -0.26916847	      0.17593432	      0.02240561	     -0.49207234	      0.17593432	      0.01558669	     -0.49207234	      0.14488708	      0.01266410	     -0.41269800	      0.13453801	      0.00779266	     -0.31349019	      0.12418893	      0.09741375	     -2.28938912	      0.92093542	      0.00000000	      0.00000000	      0.00000000	      0.00000000	      0.00000000	      1.10071748	    -32.08097113	    -35.12264539	     25.22886074	     61.59730546	      0.00000000	      4.99606849	     -8.30667315	    -30.36509152	    -29.77194834	     30.43722860	     63.27350707	      0.00000000	      4.99606849
      0.50000000	     -4.32775311	      0.49516152	     -1.26076396	      0.09252598	      0.97425148	      0.35649299	      4.82221076	     -6.26878292	    -27.80844576	      3.36759444	      0.05877561	      1.59845222	     13.30436621	      0.00000000	      4.15026692	     -4.19277484	    -15.51926011	      2.47480029	      0.04319341	      4.00214708	      8.87415916	      0.00000000	      0.01283781	     -0.18385749	      0.19774018	      0.02384110	     -0.24453046	      0.21009894	      0.02109124	     -0.44703111	      0.21009894	      0.01467233	     -0.44703111	      0.17302265	      0.01192119	     -0.37492220	      0.16066389	      0.00733552	     -0.28479525	      0.14830513	      0.09169919	     -2.07983272	      1.09977154	      0.00000000	      0.00000000	      0.00000000	      0.00000000	      0.00000000	      0.85488140	    -32.16903650	    -34.82744705	     25.42151820	     61.60556147	      0.00000000	      4.99722924	     -8.00222415	    -30.00960731	    -30.82628427	     30.94935570	     64.91805209	      0.00000000	      4.99722924
      0.53333333	     -4.21498055	      0.37696259	     -1.37203363	      0.09302981	      0.97432994	      0.35609607	      4.61969146	     -6.16432697	    -27.13887686	      3.34677540	      0.05841225	      1.44863133	     13.02271596	      0.00000000	      3.96284933	     -4.28019400	    -15.91469997	      2.53908297	      0.04431536	      4.41873663	      9.05458075	      0.00000000	      0.01334605	     -0.16986781	      0.20943532	      0.02478494	     -0.22592419	      0.22252503	      0.02192622	     -0.41301660	      0.22252503	      0.01525320	     -0.41301660	      0.18325591	      0.01239314	     -0.34639445	      0.17016620	      0.00762593	     -0.26312524	      0.15707649	      0.09532948	     -1.92157869	      1.16481643	      0.00000000	      0.00000000	      0.00000000	      0.00000000	      0.00000000	      0.84500407	    -32.12746881	    -34.95289629	     25.43490707	     60.20154708	      0.00000000	      4.99795659	     -7.73284752	    -29.87917304	    -30.94559608	     30.91636329	     63.91529053	      0.00000000	      4.99795659
      0.56666667	     -4.09213456	      0.27664617	     -1.54876384	      0.09353872	      0.97450604	      0.35595014	      4.43734957	     -6.07029078	    -26.03468488	      3.35808945	      0.05860972	      1.28073411	     12.33436953	      0.00000000	      3.76868497	     -4.40552260	    -16.68565150	      2.60639745	      0.04549022	      4.78711452	      9.74995729	      0.00000000	      0.01245013	     -0.15915103	      0.22272019	      0.02312113	     -0.21167087	      0.23664020	      0.02045432	     -0.38695981	      0.23664020	      0.01422925	     -0.38695981	      0.19488016	      0.01156119	     -0.32454078	      0.18096015	      0.00711400	     -0.24652494	      0.16704014	      0.08893002	     -1.80034826	      1.23870286	      0.00000000	      0.00000000	      0.00000000	      0.00000000	      0.00000000	      1.08569523	    -32.06071464	    -35.26692022	     25.16762591	     59.78500317	      0.00000000	      4.99850714	     -7.52979579	    -29.72409702	    -31.71915590	     30.83502687	     64.16546065	      0.00000000	      4.99850714
